<svg xmlns="http://www.w3.org/2000/svg" width="25" height="25" viewBox="0 0 25 25">
    <g fill="none" fill-rule="evenodd">
        <circle cx="12.5" cy="12.5" r="12.5" fill="#282A2D"/>
        <path fill="#FFF" d="M18.804 8.734c-.441.197-.915.33-1.412.389.507-.306.897-.79 1.08-1.367a4.909 4.909 0 0 1-1.56.6 2.452 2.452 0 0 0-1.795-.78 2.465 2.465 0 0 0-2.396 3.033 6.973 6.973 0 0 1-5.068-2.581A2.47 2.47 0 0 0 7.32 9.27c0 .857.434 1.613 1.094 2.056a2.439 2.439 0 0 1-1.114-.31v.032a2.47 2.47 0 0 0 1.973 2.422 2.456 2.456 0 0 1-1.111.042 2.464 2.464 0 0 0 2.297 1.716 4.924 4.924 0 0 1-3.64 1.023 6.94 6.94 0 0 0 3.769 1.11c4.523 0 6.996-3.764 6.996-7.028a7.59 7.59 0 0 0-.007-.32c.48-.348.897-.783 1.227-1.28"/>
    </g>
</svg>
